<svg width="40" height="40" viewBox="0 0 40 40" fill="none" xmlns="http://www.w3.org/2000/svg">
<path d="M22.0582 0C24.3081 0.00599979 25.4501 0.0179994 26.4361 0.0459984L26.824 0.0599978C27.272 0.0759973 27.714 0.0959965 28.248 0.119996C30.3759 0.219992 31.8279 0.555981 33.1018 1.04996C34.4218 1.55795 35.5337 2.24592 36.6457 3.35588C37.6627 4.35564 38.4495 5.56498 38.9516 6.89976C39.4456 8.17371 39.7816 9.62566 39.8816 11.7556C39.9056 12.2876 39.9256 12.7296 39.9416 13.1795L39.9536 13.5675C39.9836 14.5515 39.9956 15.6935 39.9996 17.9434L40.0016 19.4353V22.0552C40.0065 23.514 39.9912 24.9727 39.9556 26.4311L39.9436 26.8191C39.9276 27.269 39.9076 27.711 39.8836 28.243C39.7836 30.3729 39.4436 31.8229 38.9516 33.0988C38.451 34.4343 37.6639 35.644 36.6457 36.6427C35.6457 37.6593 34.4364 38.4462 33.1018 38.9486C31.8279 39.4426 30.3759 39.7786 28.248 39.8786C27.7734 39.901 27.2988 39.9209 26.824 39.9386L26.4361 39.9506C25.4501 39.9786 24.3081 39.9926 22.0582 39.9966L20.5663 39.9986H17.9484C16.4889 40.0036 15.0295 39.9883 13.5705 39.9526L13.1825 39.9406C12.7078 39.9226 12.2331 39.902 11.7586 39.8786C9.63065 39.7786 8.1787 39.4426 6.90274 38.9486C5.56813 38.4474 4.35927 37.6604 3.36087 36.6427C2.34299 35.6433 1.55538 34.4339 1.05295 33.0988C0.558966 31.8249 0.222977 30.3729 0.122981 28.243C0.100699 27.7685 0.0806996 27.2938 0.0629829 26.8191L0.0529835 26.4311C0.0161288 24.9728 -0.00053903 23.514 0.00298502 22.0552V17.9434C-0.00259672 16.4846 0.012071 15.0259 0.0469836 13.5675L0.0609831 13.1795C0.0769825 12.7296 0.0969817 12.2876 0.120981 11.7556C0.220977 9.62566 0.556965 8.17571 1.05095 6.89976C1.55316 5.56361 2.34234 4.35389 3.36287 3.35588C4.36102 2.33887 5.56908 1.55192 6.90274 1.04996C8.1787 0.555981 9.62865 0.219992 11.7586 0.119996C12.2906 0.0959965 12.7345 0.0759973 13.1825 0.0599978L13.5705 0.0479982C15.0288 0.012465 16.4876 -0.00286929 17.9464 0.00199978L22.0582 0ZM20.0023 9.99965C17.3502 9.99965 14.8068 11.0532 12.9315 12.9285C11.0562 14.8038 10.0026 17.3472 10.0026 19.9993C10.0026 22.6514 11.0562 25.1948 12.9315 27.0701C14.8068 28.9454 17.3502 29.999 20.0023 29.999C22.6544 29.999 25.1978 28.9454 27.0731 27.0701C28.9484 25.1948 30.0019 22.6514 30.0019 19.9993C30.0019 17.3472 28.9484 14.8038 27.0731 12.9285C25.1978 11.0532 22.6544 9.99965 20.0023 9.99965ZM20.0023 13.9995C20.7902 13.9994 21.5704 14.1544 22.2984 14.4558C23.0264 14.7572 23.6878 15.1991 24.2451 15.7561C24.8023 16.3131 25.2443 16.9745 25.546 17.7024C25.8476 18.4302 26.0029 19.2104 26.0031 19.9983C26.0032 20.7862 25.8481 21.5664 25.5467 22.2944C25.2454 23.0224 24.8035 23.6839 24.2465 24.2411C23.6894 24.7983 23.0281 25.2404 22.3002 25.542C21.5723 25.8436 20.7922 25.999 20.0043 25.9991C18.413 25.9991 16.887 25.367 15.7618 24.2418C14.6366 23.1166 14.0045 21.5905 14.0045 19.9993C14.0045 18.4081 14.6366 16.882 15.7618 15.7568C16.887 14.6316 18.413 13.9995 20.0043 13.9995M30.5039 6.99975C29.8409 6.99975 29.205 7.26314 28.7362 7.73196C28.2674 8.20079 28.004 8.83665 28.004 9.49967C28.004 10.1627 28.2674 10.7985 28.7362 11.2674C29.205 11.7362 29.8409 11.9996 30.5039 11.9996C31.1669 11.9996 31.8028 11.7362 32.2716 11.2674C32.7404 10.7985 33.0038 10.1627 33.0038 9.49967C33.0038 8.83665 32.7404 8.20079 32.2716 7.73196C31.8028 7.26314 31.1669 6.99975 30.5039 6.99975Z" fill="black"/>
</svg>
