<svg width="40" height="40" viewBox="0 0 40 40" fill="none" xmlns="http://www.w3.org/2000/svg">
<rect x="-0.000488281" width="39.9986" height="39.9986" rx="5" fill="black"/>
<path d="M16.2815 29.9991C23.8288 29.9991 27.9574 22.3028 27.9574 15.6403C27.9591 15.4239 27.9566 15.2075 27.9499 14.9911C28.7534 14.2747 29.4471 13.3881 29.9986 12.3729C29.2475 12.7795 28.4519 13.0479 27.6374 13.1698C28.4956 12.5386 29.1384 11.5453 29.4461 10.3746C28.6402 10.9634 27.7576 11.3761 26.8374 11.5945C26.2189 10.7839 25.4005 10.2468 24.5089 10.0666C23.6172 9.88637 22.7022 10.073 21.9055 10.5976C21.1088 11.1222 20.4749 11.9555 20.102 12.9683C19.729 13.9812 19.6379 15.1172 19.8427 16.2003C18.2111 16.1001 16.6148 15.5787 15.1576 14.6699C13.7004 13.7611 12.4148 12.4853 11.3842 10.9254C10.8612 12.0378 10.7017 13.3534 10.938 14.6053C11.1743 15.8572 11.7888 16.9515 12.6567 17.6663C12.006 17.6404 11.3695 17.4253 10.7992 17.0387V17.1079C10.8008 18.273 11.129 19.4017 11.7284 20.3036C12.3277 21.2055 13.1616 21.8252 14.0891 22.0582C13.737 22.1777 13.3732 22.2372 13.0079 22.2351C12.7503 22.2384 12.4931 22.209 12.2404 22.1474C12.5022 23.1509 13.0126 24.0283 13.7002 24.6565C14.3877 25.2847 15.2179 25.6322 16.0741 25.6502C14.6192 27.0547 12.8232 27.8169 10.9742 27.8146C10.6484 27.8176 10.3227 27.7945 9.99927 27.7454C11.876 29.2183 14.0557 30.0002 16.2815 29.9991Z" fill="white"/>
</svg>
